<mxfile host="app.diagrams.net" agent="Mozilla/5.0 (Windows NT 10.0; Win64; x64) AppleWebKit/537.36 (KHTML, like Gecko) Chrome/132.0.0.0 Safari/537.36" version="26.0.16">
  <diagram name="Page-1" id="bENSw4ginZHUk9GP-0yd">
    <mxGraphModel grid="1" page="1" gridSize="10" guides="1" tooltips="1" connect="1" arrows="1" fold="1" pageScale="1" pageWidth="850" pageHeight="1100" math="0" shadow="0">
      <root>
        <mxCell id="0" />
        <mxCell id="1" parent="0" />
        <mxCell id="LVR06XW8owl-k6EtUa2X-5" style="edgeStyle=orthogonalEdgeStyle;rounded=0;orthogonalLoop=1;jettySize=auto;html=1;exitX=0;exitY=0.5;exitDx=0;exitDy=0;entryX=1;entryY=0.5;entryDx=0;entryDy=0;" edge="1" parent="1" source="LVR06XW8owl-k6EtUa2X-1" target="LVR06XW8owl-k6EtUa2X-2">
          <mxGeometry relative="1" as="geometry" />
        </mxCell>
        <mxCell id="LVR06XW8owl-k6EtUa2X-1" value="master_book_list&lt;div&gt;(book_id, title, author)&lt;/div&gt;" style="rounded=0;whiteSpace=wrap;html=1;" vertex="1" parent="1">
          <mxGeometry x="370" y="230" width="370" height="40" as="geometry" />
        </mxCell>
        <mxCell id="LVR06XW8owl-k6EtUa2X-2" value="ISBNs&lt;div&gt;(book_id, isbn, isbn type)&lt;/div&gt;" style="rounded=0;whiteSpace=wrap;html=1;" vertex="1" parent="1">
          <mxGeometry x="160" y="230" width="150" height="40" as="geometry" />
        </mxCell>
        <mxCell id="LVR06XW8owl-k6EtUa2X-11" value="" style="edgeStyle=orthogonalEdgeStyle;rounded=0;orthogonalLoop=1;jettySize=auto;html=1;" edge="1" parent="1" source="LVR06XW8owl-k6EtUa2X-6" target="LVR06XW8owl-k6EtUa2X-1">
          <mxGeometry relative="1" as="geometry" />
        </mxCell>
        <mxCell id="LVR06XW8owl-k6EtUa2X-6" value="NYT Ratings&amp;nbsp;&lt;div&gt;(book_id, best_sellers_date, published_date, age_group, rank, rank_last_week, updated_date, weeks_on_list, nyt_list_id)&lt;/div&gt;" style="rounded=0;whiteSpace=wrap;html=1;" vertex="1" parent="1">
          <mxGeometry x="360" y="340" width="210" height="90" as="geometry" />
        </mxCell>
        <mxCell id="LVR06XW8owl-k6EtUa2X-10" value="" style="edgeStyle=orthogonalEdgeStyle;rounded=0;orthogonalLoop=1;jettySize=auto;html=1;" edge="1" parent="1" source="LVR06XW8owl-k6EtUa2X-9" target="LVR06XW8owl-k6EtUa2X-6">
          <mxGeometry relative="1" as="geometry" />
        </mxCell>
        <mxCell id="LVR06XW8owl-k6EtUa2X-9" value="NYT_list_types&lt;div&gt;(list_type_id, list_type)&lt;/div&gt;" style="rounded=0;whiteSpace=wrap;html=1;" vertex="1" parent="1">
          <mxGeometry x="390" y="470" width="150" height="60" as="geometry" />
        </mxCell>
        <mxCell id="0kNTsvvGWqR1S_xmeqjb-2" value="storygraph ratings" style="rounded=1;whiteSpace=wrap;html=1;" vertex="1" parent="1">
          <mxGeometry x="365" y="90" width="120" height="60" as="geometry" />
        </mxCell>
        <mxCell id="0kNTsvvGWqR1S_xmeqjb-3" value="book club picks" style="rounded=1;whiteSpace=wrap;html=1;" vertex="1" parent="1">
          <mxGeometry x="540" y="90" width="120" height="60" as="geometry" />
        </mxCell>
      </root>
    </mxGraphModel>
  </diagram>
</mxfile>
